PathFileType	4	(X/Y/Z)	SUBJ82_1_walk_RCNL2025.trc
DataRate	CameraRate	NumFrames	NumMarkers	Units	OrigDataRate	OrigDataStartFrame	OrigNumFrames
100	100	11	25	mm	100	142	226
Frame#	Time	R_Shoulder			L_Shoulder			C7			J_Notch			R_Elbow			L_Elbow			R_Wrist			L_Wrist			R_Asis			L_Asis			Sacral			Thoracic			Sternum			R_Thigh_Lateral			R_Knee_Lateral			R_Shank_Lateral			R_Ankle_Lateral			R_Heel			R_Toe			L_Thigh_Lateral			L_Knee_Lateral			L_Shank_Lateral			L_Ankle_Lateral			L_Heel			L_Toe		
		X1	Y1	Z1	X2	Y2	Z2	X3	Y3	Z3	X4	Y4	Z4	X5	Y5	Z5	X6	Y6	Z6	X7	Y7	Z7	X8	Y8	Z8	X9	Y9	Z9	X10	Y10	Z10	X11	Y11	Z11	X12	Y12	Z12	X13	Y13	Z13	X14	Y14	Z14	X15	Y15	Z15	X16	Y16	Z16	X17	Y17	Z17	X18	Y18	Z18	X19	Y19	Z19	X20	Y20	Z20	X21	Y21	Z21	X22	Y22	Z22	X23	Y23	Z23	X24	Y24	Z24	X25	Y25	Z25
142	1.41000000	998.310181	1418.341675	-27.087170	1032.004028	1433.634277	-435.714783	954.180359	1516.879272	-229.275711	1082.625000	1406.784668	-226.570618	922.100586	1083.602051	43.429871	979.772278	1087.097412	-517.280029	1002.957336	834.646759	27.506701	1093.836609	851.128540	-509.787903	1064.340454	982.004700	-98.464638	1083.978516	1006.214905	-364.686188	893.437805	1010.704102	-254.270462	869.478027	1280.920166	-248.181519	1111.701782	1228.834717	-227.179657	1043.691650	557.983398	-34.921688	1044.472534	480.961792	-77.047249	875.710327	343.345123	-38.285297	756.076782	213.535355	-142.817947	712.739136	220.378830	-195.648712	825.259216	94.745499	-141.106110	1047.272461	557.132751	-416.654999	1055.497925	483.287323	-370.159882	1045.389648	251.339874	-398.748291	1016.735779	67.027939	-325.323486	969.809143	51.123135	-275.687408	1153.951172	40.476097	-287.822266
143	1.42000000	1012.785461	1419.820923	-26.350233	1047.231201	1436.957642	-434.868439	969.285583	1518.830322	-228.296677	1097.706543	1408.869141	-225.758530	932.792053	1085.484741	42.070709	1001.268372	1089.845825	-518.033752	1008.785156	835.026794	26.328168	1121.839172	857.259308	-509.888077	1079.794434	985.182617	-98.808113	1098.387207	1007.701843	-365.122711	908.433228	1013.147583	-253.206116	884.816711	1282.839722	-248.468246	1126.636963	1230.960938	-227.095795	1070.109863	561.883789	-34.306843	1071.827881	484.700104	-77.286438	907.599060	341.242126	-38.638962	795.181580	204.381607	-142.368622	751.189514	207.699966	-195.335831	871.933594	90.806252	-139.183243	1052.583984	557.795410	-415.473389	1059.105225	483.600281	-368.944916	1047.252319	251.591934	-397.838837	1017.066101	67.277542	-324.861115	970.049133	51.499313	-275.414276	1154.189209	40.409378	-287.691437
144	1.43000000	1027.384644	1420.967529	-25.654442	1062.451294	1439.934204	-434.029541	984.358643	1520.425537	-227.351746	1112.759766	1410.614014	-224.988174	943.372131	1087.165161	40.747795	1022.424072	1092.396851	-518.730530	1014.743713	835.369629	25.058224	1149.643860	863.474640	-509.722092	1095.199219	988.006470	-99.069435	1112.857910	1008.883179	-365.484589	923.431213	1015.186523	-252.118637	900.153625	1284.401733	-248.770508	1141.567993	1232.762329	-226.988541	1096.142578	565.654541	-33.696301	1098.578247	488.199066	-77.570236	939.739685	338.174225	-38.959473	835.281006	194.288788	-141.908005	790.928284	194.044815	-194.963593	919.425781	86.529915	-137.339920	1057.884155	558.403381	-414.220123	1062.668091	483.894257	-367.655914	1049.115845	251.853516	-396.850647	1017.417847	67.566711	-324.357635	970.302551	51.868862	-275.073425	1154.449707	40.347351	-287.524078
145	1.44000000	1042.097290	1421.741821	-24.984877	1077.703125	1442.490601	-433.189514	999.418152	1521.632690	-226.441742	1127.793701	1411.978516	-224.248016	953.875549	1088.590210	39.459759	1043.247070	1094.669922	-519.382690	1020.864075	835.604401	23.712495	1177.214111	869.686737	-509.289246	1110.553589	990.413940	-99.238480	1127.405396	1009.704346	-365.768921	938.428101	1016.773254	-251.029968	915.489014	1285.580933	-249.071625	1156.509155	1234.183472	-226.847870	1121.680298	569.208069	-33.142460	1124.707031	491.374176	-77.880989	972.255432	334.085571	-39.194088	876.384399	183.463928	-141.415848	832.005188	179.631195	-194.537674	967.633362	82.077545	-135.505814	1063.241089	558.942444	-412.915436	1066.242920	484.167389	-366.318085	1050.937500	252.134903	-395.814667	1017.788635	67.898750	-323.826233	970.563416	52.226803	-274.673157	1154.723999	40.293850	-287.322357
146	1.45000000	1056.899170	1422.114380	-24.325024	1093.012329	1444.566895	-432.340790	1014.479919	1522.425049	-225.562576	1142.818237	1412.927246	-223.524063	964.344910	1089.711304	38.205231	1063.765381	1096.596802	-520.002625	1027.166168	835.663788	22.312654	1204.524780	875.817017	-508.604065	1125.856323	992.350769	-99.300194	1142.038574	1010.119751	-365.963745	953.421997	1017.872498	-249.956543	930.822266	1286.360596	-249.351913	1171.472168	1235.174072	-226.665009	1146.614380	572.463074	-32.690987	1150.194336	494.147980	-78.205101	1005.230652	328.987762	-39.298824	918.495422	172.118225	-140.864502	874.439575	164.691635	-194.040085	1016.476685	77.615402	-133.622894	1068.685181	559.405945	-411.581268	1069.870117	484.420593	-364.965515	1052.696533	252.440674	-394.765167	1018.170837	68.267387	-323.282196	970.828247	52.575996	-274.231384	1155.001221	40.250767	-287.094360
147	1.46000000	1071.760376	1422.065552	-23.660097	1108.394531	1446.115356	-431.476685	1029.558960	1522.782104	-224.707764	1157.843506	1413.429932	-222.801376	974.828796	1090.486572	36.983925	1084.019775	1098.123169	-520.599976	1033.666809	835.487885	20.883089	1231.559326	881.800537	-507.692596	1141.105713	993.770325	-99.236526	1156.758423	1010.098816	-366.046600	968.413513	1018.457886	-248.907349	946.152771	1286.730103	-249.589401	1186.464233	1235.691162	-226.428757	1170.852051	575.346802	-32.373363	1175.014771	496.445251	-78.531883	1038.708618	322.967865	-39.240349	961.609863	160.463730	-140.217270	918.221252	149.480209	-193.427628	1065.886597	73.314987	-131.651062	1074.222290	559.796021	-410.244751	1073.577148	484.656647	-363.639221	1054.398193	252.765030	-393.737701	1018.555542	68.663071	-322.741394	971.095093	52.927544	-273.769318	1155.270630	40.217133	-286.852478
148	1.47000000	1086.650269	1421.583130	-22.978807	1123.858643	1447.099243	-430.591339	1044.670410	1522.691650	-223.871231	1172.879150	1413.461426	-222.065063	985.379700	1090.885498	35.797401	1104.056641	1099.209106	-521.179993	1040.395050	835.030823	19.450655	1258.304077	887.585602	-506.583984	1156.302124	994.635315	-99.030457	1171.558105	1009.629028	-365.987640	983.404419	1018.511292	-247.883514	961.478027	1286.683228	-249.760971	1201.488525	1235.701782	-226.125229	1194.322510	577.794312	-32.203300	1199.135864	498.192474	-78.852394	1072.690308	316.181427	-38.994011	1005.713440	148.718475	-139.425888	963.314880	134.272797	-192.636429	1115.799194	69.356972	-129.568024	1079.854004	560.120239	-408.939667	1077.389771	484.879425	-362.380402	1056.073120	253.092850	-392.766174	1018.938843	69.080048	-322.218658	971.359436	53.298676	-273.304565	1155.522705	40.188339	-286.610291
149	1.48000000	1101.540283	1420.664062	-22.274193	1139.408813	1447.493286	-429.680420	1059.828003	1522.149292	-223.048706	1187.935669	1413.004272	-221.300873	996.050415	1090.887695	34.649120	1123.921997	1099.828003	-521.742737	1047.396027	834.262878	18.043791	1284.744934	893.130066	-505.302673	1171.451660	994.921204	-98.669754	1186.426147	1008.715515	-365.757782	998.397217	1018.024048	-246.878311	976.792603	1286.219971	-249.843704	1216.544922	1235.184204	-225.739166	1216.967407	579.739075	-32.176846	1222.518188	499.321869	-79.159111	1107.130737	308.833954	-38.540409	1050.776611	137.112961	-138.430038	1009.663086	119.357346	-191.595093	1166.151489	65.934448	-127.367416	1085.593872	560.384094	-407.704346	1081.342407	485.090729	-361.222504	1057.780762	253.406311	-391.878204	1019.322205	69.515289	-321.723663	971.610352	53.709698	-272.845215	1155.749146	40.156105	-286.379913
150	1.49000000	1116.404053	1419.314331	-21.543312	1155.046631	1447.284302	-428.740784	1075.041870	1521.157471	-222.237030	1203.024414	1412.050537	-220.495682	1006.890564	1090.480347	33.545002	1143.657959	1099.964111	-522.283630	1054.719971	833.165619	16.689199	1310.865845	898.398376	-503.866699	1186.569946	994.617798	-98.147835	1201.347656	1007.379089	-365.337097	1013.396118	1016.998169	-245.876617	992.089294	1285.347412	-249.815277	1231.630127	1234.129517	-225.255234	1238.727539	581.103699	-32.276394	1245.115845	499.776031	-79.446693	1141.933716	301.157928	-37.863274	1096.749146	125.891212	-137.160934	1057.188721	105.018097	-190.243362	1216.873291	63.248322	-125.056808	1091.476318	560.584229	-406.575775	1085.487061	485.284729	-360.185150	1059.604614	253.691116	-391.089264	1019.708069	69.964478	-321.257660	971.833679	54.181549	-272.389404	1155.943481	40.110386	-286.168793
151	1.50000000	1131.218872	1417.548706	-20.785774	1170.774170	1446.472778	-427.769073	1090.317993	1519.726440	-221.432678	1218.157227	1410.602905	-219.637985	1017.944763	1089.655396	32.493477	1163.299072	1099.610107	-522.794006	1062.412354	831.727264	15.408893	1336.649780	903.361115	-502.289017	1201.684570	993.729065	-97.462677	1216.302368	1005.652405	-364.720428	1028.406860	1015.446716	-244.854645	1007.361328	1284.080444	-249.653473	1246.738892	1232.542847	-224.660614	1259.534912	581.799133	-32.477474	1266.880127	499.512360	-79.714119	1176.950439	293.393494	-36.950996	1143.553101	115.307861	-135.546951	1105.785645	91.529221	-188.538483	1267.872314	61.497234	-122.653214	1097.557129	560.704590	-405.580872	1089.893066	485.443420	-359.272095	1061.633789	253.935928	-390.397583	1020.095520	70.420143	-320.811584	972.023254	54.733952	-271.932220	1156.101807	40.042965	-285.977661
152	1.51000000	1145.965332	1415.388794	-20.002211	1186.593628	1445.072144	-426.761353	1105.660278	1517.875000	-220.630814	1233.345337	1408.675537	-218.719269	1029.250854	1088.409546	31.503841	1182.870483	1098.766479	-523.259827	1070.513000	829.943695	14.220812	1362.078674	907.993958	-500.578262	1216.833984	992.270935	-96.618027	1231.262085	1003.573364	-363.921112	1043.436523	1013.394226	-243.780594	1022.604004	1282.441528	-249.336884	1261.866333	1230.445190	-223.948715	1279.313110	581.730896	-32.756008	1287.766968	498.509064	-79.966393	1211.988770	285.777130	-35.801392	1191.067749	105.623688	-133.519989	1155.294678	79.157181	-186.438965	1319.018066	60.869507	-120.176422	1103.907837	560.717102	-404.728302	1094.641235	485.536652	-358.471710	1063.939575	254.129013	-389.783173	1020.479492	70.873947	-320.366486	972.188416	55.383778	-271.470612	1156.222778	39.951057	-285.801147
